<!DOCTYPE svg PUBLIC "-//W3C//DTD SVG 1.1//EN" "http://www.w3.org/Graphics/SVG/1.1/DTD/svg11.dtd">
<!-- Uploaded to: SVG Repo, www.svgrepo.com, Transformed by: SVG Repo Mixer Tools -->
<svg fill="#c9c7cd" width="800px" height="800px" viewBox="0 0 512 512" xmlns="http://www.w3.org/2000/svg" stroke="#c9c7cd">
<g id="SVGRepo_bgCarrier" stroke-width="0"/>
<g id="SVGRepo_tracerCarrier" stroke-linecap="round" stroke-linejoin="round"/>
<g id="SVGRepo_iconCarrier">
<title>ionicons-v5-g</title>
<path d="M296,416.19a23.92,23.92,0,0,1-14.21-4.69l-.66-.51-91.46-75H120a24,24,0,0,1-24-24V200a24,24,0,0,1,24-24h69.65l91.46-75,.66-.51A24,24,0,0,1,320,119.83V392.17a24,24,0,0,1-24,24Z"/>
<path d="M384,336a16,16,0,0,1-14.29-23.18c9.49-18.9,14.3-38,14.3-56.82,0-19.36-4.66-37.92-14.25-56.73a16,16,0,0,1,28.5-14.54C410.2,208.16,416,231.47,416,256c0,23.83-6,47.78-17.7,71.18A16,16,0,0,1,384,336Z"/>
</g>
</svg>